<svg width="272" height="23" viewBox="0 0 272 23" fill="none" xmlns="http://www.w3.org/2000/svg">
<path d="M0.536 17V1.352H4.064V7.376H8.336V1.352H11.864V17H8.336V10.472H4.064V17H0.536ZM21.3106 17.288C20.3826 17.288 19.5106 17.152 18.6946 16.88C17.8946 16.592 17.1986 16.184 16.6066 15.656C16.0146 15.128 15.5506 14.48 15.2146 13.712C14.8786 12.928 14.7106 12.04 14.7106 11.048C14.7106 10.072 14.8786 9.2 15.2146 8.432C15.5666 7.648 16.0306 6.992 16.6066 6.464C17.1826 5.92 17.8386 5.512 18.5746 5.24C19.3266 4.952 20.1026 4.808 20.9026 4.808C21.8146 4.808 22.6226 4.952 23.3266 5.24C24.0306 5.528 24.6146 5.928 25.0786 6.44C25.5586 6.952 25.9186 7.56 26.1586 8.264C26.3986 8.952 26.5186 9.704 26.5186 10.52C26.5186 10.84 26.4946 11.152 26.4466 11.456C26.4146 11.744 26.3826 11.96 26.3506 12.104H18.2386C18.4146 12.968 18.8066 13.6 19.4146 14C20.0226 14.4 20.8146 14.6 21.7906 14.6C22.3346 14.6 22.8466 14.528 23.3266 14.384C23.8226 14.24 24.3346 14.032 24.8626 13.76L26.0386 15.896C25.3506 16.328 24.5906 16.672 23.7586 16.928C22.9266 17.168 22.1106 17.288 21.3106 17.288ZM21.0226 7.496C20.3186 7.496 19.7266 7.68 19.2466 8.048C18.7826 8.416 18.4626 8.976 18.2866 9.728H23.3746C23.1986 8.24 22.4146 7.496 21.0226 7.496ZM37.2613 17.288C35.7573 17.288 34.6213 16.848 33.8533 15.968C33.1013 15.072 32.7253 13.864 32.7253 12.344V2.96H28.9813V0.175999H36.2533V12.488C36.2533 12.856 36.3013 13.168 36.3973 13.424C36.5093 13.664 36.6533 13.864 36.8293 14.024C37.0213 14.168 37.2293 14.272 37.4533 14.336C37.6933 14.4 37.9413 14.432 38.1973 14.432C38.4693 14.432 38.7493 14.408 39.0373 14.36C39.3413 14.296 39.6773 14.192 40.0453 14.048L40.8373 16.64C40.5173 16.736 40.2213 16.824 39.9493 16.904C39.6773 16.984 39.4053 17.048 39.1333 17.096C38.8613 17.16 38.5733 17.208 38.2693 17.24C37.9653 17.272 37.6293 17.288 37.2613 17.288ZM51.6519 17.288C50.1479 17.288 49.0119 16.848 48.2439 15.968C47.4919 15.072 47.1159 13.864 47.1159 12.344V2.96H43.3719V0.175999H50.6439V12.488C50.6439 12.856 50.6919 13.168 50.7879 13.424C50.8999 13.664 51.0439 13.864 51.2199 14.024C51.4119 14.168 51.6199 14.272 51.8439 14.336C52.0839 14.4 52.3319 14.432 52.5879 14.432C52.8599 14.432 53.1399 14.408 53.4279 14.36C53.7319 14.296 54.0679 14.192 54.4359 14.048L55.2279 16.64C54.9079 16.736 54.6119 16.824 54.3399 16.904C54.0679 16.984 53.7959 17.048 53.5239 17.096C53.2519 17.16 52.9639 17.208 52.6599 17.24C52.3559 17.272 52.0199 17.288 51.6519 17.288ZM63.7625 17.288C62.9785 17.288 62.2185 17.152 61.4825 16.88C60.7625 16.592 60.1145 16.184 59.5385 15.656C58.9785 15.128 58.5305 14.48 58.1945 13.712C57.8585 12.928 57.6905 12.04 57.6905 11.048C57.6905 10.056 57.8585 9.176 58.1945 8.408C58.5305 7.624 58.9785 6.968 59.5385 6.44C60.1145 5.912 60.7625 5.512 61.4825 5.24C62.2185 4.952 62.9785 4.808 63.7625 4.808C64.5465 4.808 65.2985 4.952 66.0185 5.24C66.7545 5.512 67.4025 5.912 67.9625 6.44C68.5385 6.968 68.9945 7.624 69.3305 8.408C69.6665 9.176 69.8345 10.056 69.8345 11.048C69.8345 12.04 69.6665 12.928 69.3305 13.712C68.9945 14.48 68.5385 15.128 67.9625 15.656C67.4025 16.184 66.7545 16.592 66.0185 16.88C65.2985 17.152 64.5465 17.288 63.7625 17.288ZM63.7625 14.432C64.5785 14.432 65.1865 14.128 65.5865 13.52C66.0025 12.912 66.2105 12.088 66.2105 11.048C66.2105 10.008 66.0025 9.184 65.5865 8.576C65.1865 7.968 64.5785 7.664 63.7625 7.664C62.9465 7.664 62.3305 7.968 61.9145 8.576C61.5145 9.184 61.3145 10.008 61.3145 11.048C61.3145 12.088 61.5145 12.912 61.9145 13.52C62.3305 14.128 62.9465 14.432 63.7625 14.432ZM77.0011 10.88L76.5211 4.112L76.4011 0.92H79.9051L79.7851 4.112L79.3051 10.88H77.0011ZM78.1531 17.288C77.4651 17.288 76.8891 17.064 76.4251 16.616C75.9771 16.152 75.7531 15.56 75.7531 14.84C75.7531 14.12 75.9771 13.544 76.4251 13.112C76.8891 12.664 77.4651 12.44 78.1531 12.44C78.8411 12.44 79.4091 12.664 79.8571 13.112C80.3211 13.544 80.5531 14.12 80.5531 14.84C80.5531 15.56 80.3211 16.152 79.8571 16.616C79.4091 17.064 78.8411 17.288 78.1531 17.288ZM90.5998 22.208L89.7118 20.144C90.7838 19.776 91.5758 19.296 92.0878 18.704C92.6158 18.128 92.8638 17.472 92.8318 16.736C92.7678 16.752 92.6798 16.76 92.5678 16.76C92.2318 16.76 91.9038 16.712 91.5838 16.616C91.2798 16.504 91.0078 16.344 90.7678 16.136C90.5278 15.928 90.3358 15.672 90.1918 15.368C90.0478 15.064 89.9758 14.712 89.9758 14.312C89.9758 13.56 90.2318 12.96 90.7438 12.512C91.2718 12.064 91.9118 11.84 92.6638 11.84C93.6558 11.84 94.3998 12.208 94.8958 12.944C95.3918 13.664 95.6398 14.672 95.6398 15.968C95.6398 17.504 95.2158 18.8 94.3678 19.856C93.5198 20.912 92.2638 21.696 90.5998 22.208ZM115.901 17V14.024H119.549V4.328H115.901V1.352H126.749V4.328H123.101V14.024H126.749V17H115.901ZM134.3 10.04L133.364 8.168C135.044 7.416 135.932 6.304 136.028 4.832C135.884 4.88 135.732 4.904 135.572 4.904C134.916 4.904 134.38 4.704 133.964 4.304C133.564 3.904 133.364 3.368 133.364 2.696C133.364 1.96 133.58 1.376 134.012 0.943999C134.444 0.495999 134.996 0.271999 135.668 0.271999C136.58 0.271999 137.276 0.615999 137.756 1.304C138.236 1.976 138.476 2.912 138.476 4.112C138.476 5.424 138.132 6.584 137.444 7.592C136.756 8.584 135.708 9.4 134.3 10.04ZM143.746 17V5.096H146.41L146.65 6.56H146.746C146.97 6.08 147.282 5.672 147.682 5.336C148.082 4.984 148.626 4.808 149.314 4.808C149.826 4.808 150.258 4.976 150.61 5.312C150.978 5.632 151.234 6.112 151.378 6.752C151.602 6.208 151.922 5.752 152.338 5.384C152.77 5 153.33 4.808 154.018 4.808C154.882 4.808 155.538 5.152 155.986 5.84C156.45 6.512 156.682 7.448 156.682 8.648V17H153.322V8.888C153.322 8.52 153.274 8.248 153.178 8.072C153.082 7.896 152.914 7.808 152.674 7.808C152.45 7.808 152.258 7.904 152.098 8.096C151.938 8.288 151.77 8.576 151.594 8.96V17H148.834V8.888C148.834 8.168 148.61 7.808 148.162 7.808C147.938 7.808 147.746 7.904 147.586 8.096C147.426 8.288 147.266 8.576 147.106 8.96V17H143.746ZM173.368 17V1.352H178.912C179.744 1.352 180.52 1.432 181.24 1.592C181.976 1.752 182.616 2.024 183.16 2.408C183.72 2.776 184.16 3.272 184.48 3.896C184.8 4.52 184.96 5.296 184.96 6.224C184.96 7.376 184.704 8.328 184.192 9.08C183.68 9.816 183.008 10.368 182.176 10.736L185.704 17H181.744L178.743 11.36H176.896V17H173.368ZM176.896 8.552H178.624C180.528 8.552 181.48 7.776 181.48 6.224C181.48 5.456 181.24 4.92 180.76 4.616C180.28 4.312 179.568 4.16 178.624 4.16H176.896V8.552ZM193.278 17.288C192.494 17.288 191.734 17.152 190.998 16.88C190.278 16.592 189.63 16.184 189.054 15.656C188.494 15.128 188.046 14.48 187.71 13.712C187.374 12.928 187.206 12.04 187.206 11.048C187.206 10.056 187.374 9.176 187.71 8.408C188.046 7.624 188.494 6.968 189.054 6.44C189.63 5.912 190.278 5.512 190.998 5.24C191.734 4.952 192.494 4.808 193.278 4.808C194.062 4.808 194.814 4.952 195.534 5.24C196.27 5.512 196.918 5.912 197.478 6.44C198.054 6.968 198.51 7.624 198.846 8.408C199.182 9.176 199.35 10.056 199.35 11.048C199.35 12.04 199.182 12.928 198.846 13.712C198.51 14.48 198.054 15.128 197.478 15.656C196.918 16.184 196.27 16.592 195.534 16.88C194.814 17.152 194.062 17.288 193.278 17.288ZM193.278 14.432C194.094 14.432 194.702 14.128 195.102 13.52C195.518 12.912 195.726 12.088 195.726 11.048C195.726 10.008 195.518 9.184 195.102 8.576C194.702 7.968 194.094 7.664 193.278 7.664C192.462 7.664 191.846 7.968 191.43 8.576C191.03 9.184 190.83 10.008 190.83 11.048C190.83 12.088 191.03 12.912 191.43 13.52C191.846 14.128 192.462 14.432 193.278 14.432ZM202.197 17V5.096H205.077L205.341 6.68H205.437C205.949 6.168 206.533 5.728 207.189 5.36C207.861 4.992 208.645 4.808 209.541 4.808C210.885 4.808 211.869 5.24 212.493 6.104C213.117 6.968 213.429 8.152 213.429 9.656V17H209.901V10.112C209.901 9.312 209.773 8.728 209.517 8.36C209.261 7.992 208.805 7.808 208.149 7.808C207.669 7.808 207.245 7.912 206.877 8.12C206.525 8.328 206.141 8.64 205.725 9.056V17H202.197ZM220.235 17.288C219.627 17.288 219.083 17.192 218.603 17C218.123 16.824 217.715 16.576 217.379 16.256C217.043 15.92 216.779 15.536 216.587 15.104C216.411 14.672 216.323 14.2 216.323 13.688C216.323 13.016 216.467 12.432 216.755 11.936C217.043 11.424 217.499 10.992 218.123 10.64C218.763 10.288 219.579 10.008 220.571 9.8C221.563 9.576 222.763 9.424 224.171 9.344C224.107 8.8 223.867 8.376 223.451 8.072C223.051 7.768 222.443 7.616 221.627 7.616C221.051 7.616 220.467 7.72 219.875 7.928C219.299 8.12 218.675 8.384 218.003 8.72L216.755 6.416C217.571 5.952 218.443 5.568 219.371 5.264C220.315 4.96 221.299 4.808 222.323 4.808C223.987 4.808 225.299 5.248 226.259 6.128C227.219 7.008 227.699 8.36 227.699 10.184V17H224.819L224.555 15.656H224.459C223.851 16.12 223.187 16.512 222.467 16.832C221.747 17.136 221.003 17.288 220.235 17.288ZM221.363 14.552C221.891 14.552 222.387 14.448 222.851 14.24C223.315 14.016 223.755 13.744 224.171 13.424V11.456C223.291 11.504 222.563 11.584 221.987 11.696C221.411 11.808 220.955 11.952 220.619 12.128C220.283 12.288 220.043 12.48 219.899 12.704C219.771 12.928 219.707 13.168 219.707 13.424C219.707 13.808 219.851 14.096 220.139 14.288C220.443 14.464 220.851 14.552 221.363 14.552ZM238.73 17.288C237.226 17.288 236.09 16.848 235.322 15.968C234.57 15.072 234.194 13.864 234.194 12.344V2.96H230.45V0.175999H237.722V12.488C237.722 12.856 237.77 13.168 237.866 13.424C237.978 13.664 238.122 13.864 238.298 14.024C238.49 14.168 238.698 14.272 238.922 14.336C239.162 14.4 239.41 14.432 239.666 14.432C239.938 14.432 240.218 14.408 240.506 14.36C240.81 14.296 241.146 14.192 241.514 14.048L242.306 16.64C241.986 16.736 241.69 16.824 241.418 16.904C241.146 16.984 240.874 17.048 240.602 17.096C240.33 17.16 240.042 17.208 239.738 17.24C239.434 17.272 239.098 17.288 238.73 17.288ZM249.785 17.288C249.033 17.288 248.345 17.144 247.721 16.856C247.113 16.568 246.585 16.16 246.137 15.632C245.705 15.088 245.369 14.432 245.129 13.664C244.889 12.896 244.769 12.024 244.769 11.048C244.769 10.072 244.913 9.2 245.201 8.432C245.489 7.664 245.865 7.016 246.329 6.488C246.809 5.944 247.353 5.528 247.961 5.24C248.569 4.952 249.201 4.808 249.857 4.808C250.529 4.808 251.097 4.92 251.561 5.144C252.025 5.352 252.457 5.664 252.857 6.08H252.953L252.785 4.232V0.175999H256.313V17H253.433L253.169 15.776H253.097C252.649 16.208 252.137 16.568 251.561 16.856C250.985 17.144 250.393 17.288 249.785 17.288ZM250.697 14.408C251.097 14.408 251.465 14.328 251.801 14.168C252.137 13.992 252.465 13.704 252.785 13.304V8.48C252.465 8.192 252.137 7.992 251.801 7.88C251.481 7.752 251.145 7.688 250.793 7.688C250.137 7.688 249.569 7.96 249.089 8.504C248.625 9.048 248.393 9.88 248.393 11C248.393 12.184 248.593 13.048 248.993 13.592C249.393 14.136 249.961 14.408 250.697 14.408ZM265.231 17.288C264.447 17.288 263.687 17.152 262.951 16.88C262.231 16.592 261.583 16.184 261.007 15.656C260.447 15.128 259.999 14.48 259.663 13.712C259.327 12.928 259.159 12.04 259.159 11.048C259.159 10.056 259.327 9.176 259.663 8.408C259.999 7.624 260.447 6.968 261.007 6.44C261.583 5.912 262.231 5.512 262.951 5.24C263.687 4.952 264.447 4.808 265.231 4.808C266.015 4.808 266.767 4.952 267.487 5.24C268.223 5.512 268.871 5.912 269.431 6.44C270.007 6.968 270.463 7.624 270.799 8.408C271.135 9.176 271.303 10.056 271.303 11.048C271.303 12.04 271.135 12.928 270.799 13.712C270.463 14.48 270.007 15.128 269.431 15.656C268.871 16.184 268.223 16.592 267.487 16.88C266.767 17.152 266.015 17.288 265.231 17.288ZM265.231 14.432C266.047 14.432 266.655 14.128 267.055 13.52C267.471 12.912 267.679 12.088 267.679 11.048C267.679 10.008 267.471 9.184 267.055 8.576C266.655 7.968 266.047 7.664 265.231 7.664C264.415 7.664 263.799 7.968 263.383 8.576C262.983 9.184 262.783 10.008 262.783 11.048C262.783 12.088 262.983 12.912 263.383 13.52C263.799 14.128 264.415 14.432 265.231 14.432Z" fill="#42AA79"/>
</svg>
